<svg style="object-fit:cover" id="my-svg" version="1" baseProfile="full" width="100%" height="100%" viewBox="0 0 1880 970" xmlns="http://www.w3.org/2000/svg"><rect width="1880" height="970" fill="#ffffff"/><defs><linearGradient id="linear-gradient" x1="0" x2="1" y1="0" y2="1"><stop offset="0%" stop-color="#c81d1190"/><stop offset="100%" stop-color="#1c39bb90"/></linearGradient></defs><path transform="scale(1, 1)" style="transform-origin:center" d="M 0,970 V 0,388 C 163.9523809523809,427.92857142857144 327.9047619047618,467.85714285714283 479,477 C 630.0952380952382,486.14285714285717 768.3333333333335,464.5 935,432 C 1101.6666666666665,399.5 1296.7619047619046,356.14285714285717 1459,347 C 1621.2380952380954,337.85714285714283 1750.6190476190477,362.92857142857144 1880,388 C 1880,388 1880,970 1880,970 Z" stroke="none" stroke-width="0" fill="url(#linear-gradient)" class="transition-all duration-300 ease-in-out delay-150"/><defs><linearGradient id="linear-gradient" x1="0" x2="1" y1="0" y2="1"><stop offset="0%" stop-color="#c81d11ff"/><stop offset="100%" stop-color="#1c39bbff"/></linearGradient></defs><path transform="scale(1, 1)" style="transform-origin:center" d="M 0,970 V 0,582 C 121.63095238095241,640.6071428571429 243.26190476190482,699.2142857142857 407,703 C 570.7380952380952,706.7857142857143 776.583333333333,655.75 957,593 C 1137.416666666667,530.25 1292.404761904762,455.7857142857143 1442,452 C 1591.595238095238,448.2142857142857 1735.797619047619,515.1071428571429 1880,582 C 1880,582 1880,970 1880,970 Z" stroke="none" stroke-width="0" fill="url(#linear-gradient)" class="transition-all duration-300 ease-in-out delay-150"/></svg>